<?xml version="1.0" encoding="UTF-8"?>
<svg xmlns="http://www.w3.org/2000/svg" xmlns:xlink="http://www.w3.org/1999/xlink" width="2418" height="709" viewBox="-49.0 2.5 2418.0 709.4">
  <title>Condensing Turbine and Vacuum System</title>
  <!-- pandid:provenance -->
  <!-- /pandid:provenance -->
  <!-- Background -->
  <rect x="-49.0" y="2.5" width="2418.0" height="709.4" fill="white" />
  <defs>
    <symbol id="sym_ejector" viewBox="0 0 80.0 40.0" overflow="visible"><rect x="0.0" y="0.0" width="40.0" height="40.0" fill="white" stroke="#111" stroke-width="1"/><path d="M 40.0 10.0 L 80.0 0.0 L 80.0 40.0 L 40.0 30.0 Z" fill="white" stroke="#111" stroke-width="1"/></symbol>
    <symbol id="sym_heater" viewBox="0 0 80.0 80.0" overflow="visible"><ellipse cx="40.0" cy="40.0" rx="30.0" ry="30.0" fill="white" stroke="#111" stroke-width="2.0"/><path d="M 10.0 40.0 L 20.0 40.0 L 30.0 25.0 L 50.0 55.0 L 60.0 40.0 L 70.0 40.0 M 80.0 0.0 L 0.0 80.0" fill="none" stroke="#111" stroke-width="2.0"/><path d="M 4.5 70.0 L 0.0 80.0 L 10.0 75.5 L 5.0 75.0 Z" fill="white" stroke="#111" stroke-width="2.0"/></symbol>
    <symbol id="sym_hex_air_cooled" viewBox="0 0 100.0 100.0" overflow="visible"><rect x="0.0" y="0.0" width="100.0" height="100.0" fill="white" stroke="#111" stroke-width="2.0"/><path d="M 40.0 75.0 L 40.0 85.0 M 60.0 75.0 L 60.0 85.0 M 70.0 75.0 L 70.0 85.0 M 50.0 75.0 L 50.0 85.0 M 30.0 75.0 L 30.0 85.0 M 15.0 80.0 L 85.0 80.0 M 60.0 12.0 L 71.0 48.0 M 40.0 12.0 L 29.0 48.0" fill="none" stroke="#111" stroke-width="2.0"/><ellipse cx="50.0" cy="35.0" rx="25.0" ry="25.0" fill="none" stroke="#111" stroke-width="2.0"/></symbol>
    <symbol id="sym_instrument" viewBox="0 0 44.0 44.0" overflow="visible"><circle cx="22" cy="22" r="21" fill="white" stroke="black" stroke-width="1"/></symbol>
    <symbol id="sym_instrument_aux" viewBox="0 0 44.0 44.0" overflow="visible"><circle cx="22" cy="22" r="21" fill="white" stroke="black" stroke-width="1"/><line x1="1" y1="19" x2="43" y2="19" stroke="black" stroke-width="0.75"/><line x1="1" y1="25" x2="43" y2="25" stroke="black" stroke-width="0.75"/></symbol>
    <symbol id="sym_instrument_interlock" viewBox="0 0 40.0 40.0" overflow="visible"><polygon points="20,1 39,20 20,39 1,20" fill="white" stroke="black" stroke-width="1"/></symbol>
    <symbol id="sym_instrument_shared" viewBox="0 0 44.0 44.0" overflow="visible"><rect x="1" y="1" width="42" height="42" fill="white" stroke="black" stroke-width="1"/><circle cx="22" cy="22" r="20" fill="none" stroke="black" stroke-width="1"/><line x1="2" y1="22" x2="42" y2="22" stroke="black" stroke-width="0.75"/></symbol>
    <symbol id="sym_pump" viewBox="0 0 70.0 67.0" overflow="visible"><path d="M 12.0 54.0 L 0.0 67.0 L 60.0 67.0 L 48.0 54.0" fill="white" stroke="#111" stroke-width="2.0"/><path d="M 0.6 25.0 A 30.0 30.0 0.0 0 1 30.0 0.0 L 70.0 0.0 L 70.0 20.0 L 58.45 20.0 A 30.0 30.0 0.0 0 1 51.8587 50.8297 A 30.0 30.0 0.0 0 1 21.3414 58.7425 A 30.0 30.0 0.0 0 1 0.6 35.0" fill="white" stroke="#111" stroke-width="2.0"/><path d="M 21.4 25.0 A 10.0 10.0 0.0 1 1 21.4 35.0" fill="none" stroke="#111" stroke-width="2.0"/></symbol>
    <symbol id="sym_separator_knockout" viewBox="0 0 51.0 95.4" overflow="visible"><path d="M 40.0 7.69 L 40.0 87.69 A 20.0 7.6923 0.0 0 1 20.0 95.3823 A 20.0 7.6923 0.0 0 1 0.0 87.69 L 0.0 7.69 A 20.0 7.6923 0.0 0 1 20.0 -0.0023 A 20.0 7.6923 0.0 0 1 40.0 7.69 Z" fill="white" stroke="#111" stroke-width="2.0"/><path d="M 0.0 7.69 L 40.0 7.69 M 0.0 87.69 L 40.0 87.69 M 0.0 17.69 L 40.0 17.69 M 0.0 27.69 L 40.0 27.69 M 0.0 17.69 L 10.0 27.69 L 20.0 17.69 L 30.0 27.69 L 40.0 17.69 M 48.0 34.69 L 48.0 52.69 M 51.0 34.69 L 51.0 52.69 M 0.0 27.69 L 10.0 17.69 L 20.0 27.69 L 30.0 17.69 L 40.0 27.69" fill="none" stroke="#111" stroke-width="2.0"/><rect x="40.0" y="37.5" width="8.0" height="12.0" fill="white" stroke="#111" stroke-width="2.0"/></symbol>
    <symbol id="sym_splitter" viewBox="0 0 50.0 50.0" overflow="visible"><polygon points="0,25 50,0 50,50" fill="none" stroke="black" stroke-width="2"/></symbol>
    <symbol id="sym_turbine" viewBox="0 0 98.0 60.0" overflow="visible"><path d="M 0.0 22.0 L 9.0 22.0 L 9.0 15.0 L 89.0 0.0 L 89.0 22.0 L 98.0 22.0 L 98.0 38.0 L 89.0 38.0 L 89.0 60.0 L 9.0 45.0 L 9.0 38.0 L 0.0 38.0 Z M 9.0 22.0 L 9.0 38.0 M 89.0 22.0 L 89.0 38.0" fill="white" stroke="#111" stroke-width="2.0"/></symbol>
    <symbol id="sym_valve_butterfly_pneumatic" viewBox="0 0 24.5 30.0" overflow="visible"><rect x="0" y="15" width="24.5" height="15" fill="white" stroke="#111" stroke-width="0.999997"/><path d="M 12.25 7.5 L 12.25 19.5 M 4.083333 7.5 A 8.166667 7.5 0 0 1 12.25 0 A 8.166667 7.5 0 0 1 20.416667 7.5 Z M 2.041667 28.125 L 22.458333 16.875" fill="white" stroke="#111" stroke-width="0.999997"/><ellipse cx="12.25" cy="22.5" rx="1.633333" ry="1.5" fill="white" stroke="#111" stroke-width="0.999997"/></symbol>
    <symbol id="sym_valve_control" viewBox="0 0 24.5 19.8" overflow="visible"><g transform="scale(0.25)"><path d="M 0.0 79.0 L 0.0 20.0 L 98.0 79.0 L 98.0 20.0 Z M 29.0 20.0 A 20.0 20.0 0.0 0 1 49.0 0.0 A 20.0 20.0 0.0 0 1 69.0 20.0 Z M 49.0 20.0 L 49.0 49.0" fill="white" stroke="#111" stroke-width="4"/></g></symbol>
    <symbol id="sym_valve_globe" viewBox="0 0 24.5 15.0" overflow="visible"><g transform="scale(0.25)"><path d="M 0.0 0.0 L 31.9 19.7 A 20.0 20.0 0.0 0 1 66.2 19.7 L 98.0 0.0 L 98.0 60.0 L 66.2 40.5 A 20.0 20.0 0.0 0 1 31.9 40.5 L 0.0 60.0 Z" fill="white" stroke="#111" stroke-width="4"/><path d="M 31.9 40.5 A 20.0 20.0 0.0 0 1 31.9 19.7 M 66.2 19.7 A 20.0 20.0 0.0 0 1 66.2 40.5" fill="none" stroke="#111" stroke-width="4"/><path d="M 31.9 19.7 A 20.0 20.0 0.0 0 1 66.2 19.7 A 20.0 20.0 0.0 0 1 66.2 40.5 A 20.0 20.0 0.0 0 1 31.9 40.5 A 20.0 20.0 0.0 0 1 31.9 19.7 Z" fill="#111" stroke="#111" stroke-width="4"/></g></symbol>
    <symbol id="sym_valve_hydraulic" viewBox="0 0 24.5 22.2" overflow="visible"><g transform="scale(0.25)"><path d="M 0.0 89.0 L 0.0 30.0 L 98.0 89.0 L 98.0 30.0 Z" fill="white" stroke="#111" stroke-width="4"/><rect x="19.0" y="0.0" width="60.0" height="30.0" fill="white" stroke="#111" stroke-width="4"/><path d="M 49.0 15.0 L 49.0 59.0 M 19.0 15.0 L 79.0 15.0" fill="none" stroke="#111" stroke-width="4"/><text x="49.0" y="21.4" font-family="sans-serif" font-size="18.0" text-anchor="middle" fill="white" stroke="white" stroke-width="2.25" stroke-linejoin="round">H</text><text x="49.0" y="21.4" font-family="sans-serif" font-size="18.0" text-anchor="middle" fill="#111">H</text></g></symbol>
    <symbol id="sym_vent" viewBox="0 0 20.0 35.0" overflow="visible"><g transform="scale(0.25)"><path d="M 40.0 40.0 L 40.0 140.0 M 0.0 40.0 L 40.0 0.0 L 80.0 40.0" fill="none" stroke="#111" stroke-width="4"/></g></symbol>
    <symbol id="sym_vessel_dished" viewBox="0 0 60.0 95.4" overflow="visible"><path d="M 50.0 7.69 L 50.0 87.69 A 20.0 7.6923 0.0 0 1 30.0 95.3823 A 20.0 7.6923 0.0 0 1 10.0 87.69 L 10.0 7.69 A 20.0 7.6923 0.0 0 1 30.0 -0.0023 A 20.0 7.6923 0.0 0 1 50.0 7.69 Z M 10.0 7.69 L 50.0 7.69 M 10.0 87.69 L 50.0 87.69 M 50.0 62.69 L 60.0 72.69 L 50.0 72.69 Z M 10.0 62.69 L 0.0 72.69 L 10.0 72.69 Z" fill="white" stroke="#111" stroke-width="2.0"/></symbol>
  </defs>
  <g id="units">
    <polygon points="6.0,495.8 85.0,495.8 100.0,508.79999999999995 85.0,521.8 6.0,521.8" fill="transparent" stroke="black" stroke-width="2" />
    <text x="45.5" y="504.79999999999995" font-family="sans-serif" font-size="12" text-anchor="middle" dominant-baseline="middle">HP Steam</text>
    <text x="45.5" y="516.8" font-family="sans-serif" font-size="10.5" text-anchor="middle" dominant-baseline="middle" fill="#333">PFD-700</text>
    <use href="#sym_separator_knockout" x="264" y="453.8" width="51.0" height="95.4" />
    <use href="#sym_valve_globe" x="1015" y="187.5" width="24.5" height="15.0" />
    <polygon points="435.0,551.2 578.0,551.2 593.0,564.2 578.0,577.2 435.0,577.2" fill="transparent" stroke="black" stroke-width="2" />
    <text x="506.5" y="560.2" font-family="sans-serif" font-size="12" text-anchor="middle" dominant-baseline="middle">Steam Trap Drain</text>
    <text x="506.5" y="572.2" font-family="sans-serif" font-size="10.5" text-anchor="middle" dominant-baseline="middle" fill="#333">PFD-800</text>
    <use href="#sym_valve_hydraulic" x="435" y="423.9" width="24.5" height="22.2" />
    <use href="#sym_turbine" x="713" y="471.5" width="98.0" height="60.0" />
    <use href="#sym_hex_air_cooled" x="1015" y="451.5" width="100.0" height="100.0" />
    <use href="#sym_ejector" x="1499" y="175" width="80.0" height="40.0" />
    <use href="#sym_vessel_dished" x="1319" y="484.5" width="60.0" height="95.4" />
    <use href="#sym_splitter" x="1319" y="170" width="50.0" height="50.0" />
    <use href="#sym_vent" x="1499" y="57.5" width="20.0" height="35.0" />
    <use href="#sym_pump" x="1499" y="501.5" width="70.0" height="67.0" />
    <use href="#sym_heater" x="1699" y="461.5" width="80.0" height="80.0" />
    <polygon points="669.0,182.0 748.0,182.0 763.0,195.0 748.0,208.0 669.0,208.0" fill="transparent" stroke="black" stroke-width="2" />
    <text x="708.5" y="191.0" font-family="sans-serif" font-size="12" text-anchor="middle" dominant-baseline="middle">MP Steam</text>
    <text x="708.5" y="203.0" font-family="sans-serif" font-size="10.5" text-anchor="middle" dominant-baseline="middle" fill="#333">PFD-700</text>
    <use href="#sym_valve_control" x="1899" y="489.1" width="24.5" height="19.8" />
    <use href="#sym_valve_butterfly_pneumatic" x="2043.5" y="479" width="24.5" height="30.0" />
    <polygon points="2188.0,488.5 2299.0,488.5 2314.0,501.5 2299.0,514.5 2188.0,514.5" fill="transparent" stroke="black" stroke-width="2" />
    <text x="2243.5" y="497.5" font-family="sans-serif" font-size="12" text-anchor="middle" dominant-baseline="middle">To Deaerator</text>
    <text x="2243.5" y="509.5" font-family="sans-serif" font-size="10.5" text-anchor="middle" dominant-baseline="middle" fill="#333">PFD-800</text>
  </g>
  <g id="streams">
    <path d="M 100.0,508.8 L 264.0,508.8" fill="none" stroke="black" stroke-width="2" />
    <path d="M 289.0,549.2 L 289.0,564.2 L 435.0,564.2" fill="none" stroke="black" stroke-width="2" />
    <path d="M 289.0,453.8 L 289.0,438.8 L 435.0,438.8" fill="none" stroke="black" stroke-width="2" />
    <path d="M 459.5,438.8 L 688.0,438.8 L 688.0,501.5 L 713.0,501.5" fill="none" stroke="black" stroke-width="2" />
    <path d="M 811.0,501.5 L 990.0,501.5 L 990.0,531.5 L 1015.0,531.5" fill="none" stroke="black" stroke-width="2" />
    <path d="M 1115.0,531.5 L 1329.0,531.5" fill="none" stroke="black" stroke-width="2" />
    <path d="M 1349.0,484.5 L 1349.0,240.0 L 1519.0,240.0 L 1519.0,215.0" fill="none" stroke="black" stroke-width="2" />
    <path d="M 1369.0,185.0 L 1474.0,185.0 L 1474.0,195.0 L 1499.0,195.0" fill="none" stroke="black" stroke-width="2" />
    <path d="M 1579.0,195.0 L 1604.0,195.0 L 1604.0,117.5 L 1509.0,117.5 L 1509.0,92.5" fill="none" stroke="black" stroke-width="2" />
    <path d="M 1369.0,531.5 L 1499.0,531.5" fill="none" stroke="black" stroke-width="2" />
    <path d="M 1569.0,511.5 L 1674.0,511.5 L 1674.0,501.5 L 1708.9,501.5" fill="none" stroke="black" stroke-width="2" />
    <path d="M 763.0,195.0 L 1015.0,195.0" fill="none" stroke="black" stroke-width="2" />
    <path d="M 1039.5,195.0 L 1319.0,195.0" fill="none" stroke="black" stroke-width="2" />
    <path d="M 1369.0,205.0 L 1484.0,205.0 L 1484.0,235.0 A 5 5 0 0 1 1484.0,245.0 L 1484.0,526.5 A 5 5 0 0 1 1484.0,536.5 L 1484.0,574.2 L 1739.0,574.2 L 1739.0,531.6" fill="none" stroke="black" stroke-width="2" />
    <path d="M 1769.1,501.5 L 1899.0,501.5" fill="none" stroke="black" stroke-width="2" />
    <path d="M 1923.5,501.5 L 2043.5,501.5" fill="none" stroke="black" stroke-width="2" />
    <path d="M 2068.0,501.5 L 2188.0,501.5" fill="none" stroke="black" stroke-width="2" />
    <path d="M 1371.0,634.9 L 1864.25,634.9 L 1864.25,506.5 A 5 5 0 0 1 1864.25,496.5 L 1864.25,379.1 L 1889.25,379.1" fill="none" stroke="black" stroke-width="1" stroke-dasharray="7,4" />
    <path d="M 1911.25,401.1 L 1911.25,464.1 L 1911.2,464.1 L 1911.2,489.1" fill="none" stroke="black" stroke-width="1" />
    <line x1="1906.2" y1="427.1" x2="1916.2" y2="433.1" stroke="black" stroke-width="1" />
    <line x1="1906.2" y1="431.1" x2="1916.2" y2="437.1" stroke="black" stroke-width="1" />
    <line x1="1906.2" y1="471.1" x2="1916.2" y2="477.1" stroke="black" stroke-width="1" />
    <line x1="1906.2" y1="475.1" x2="1916.2" y2="481.1" stroke="black" stroke-width="1" />
    <path d="M 1911.25,357.1 L 1911.25,317.5 L 1866.25,317.5 L 1866.25,287.1 L 1892.25,287.1" fill="none" stroke="black" stroke-width="1" stroke-dasharray="7,4" />
    <path d="M 1930.25,287.1 L 2055.7,287.1 L 2055.7,479.0" fill="none" stroke="black" stroke-width="1" stroke-dasharray="7,4" />
    <path d="M 928.0,419.5 L 928.0,376.5" fill="none" stroke="black" stroke-width="1" stroke-dasharray="7,4" />
    <rect x="172.8" y="502.3" width="18.4" height="13.0" fill="white" />
    <text x="182.0" y="508.8" font-family="sans-serif" font-size="10" text-anchor="middle" dominant-baseline="middle" fill="black">S1</text>
    <rect x="352.8" y="557.7" width="18.4" height="13.0" fill="white" />
    <text x="362.0" y="564.2" font-family="sans-serif" font-size="10" text-anchor="middle" dominant-baseline="middle" fill="black">S2</text>
    <rect x="352.8" y="432.3" width="18.4" height="13.0" fill="white" />
    <text x="362.0" y="438.8" font-family="sans-serif" font-size="10" text-anchor="middle" dominant-baseline="middle" fill="black">S3</text>
    <rect x="891.3" y="495.0" width="18.4" height="13.0" fill="white" />
    <text x="900.5" y="501.5" font-family="sans-serif" font-size="10" text-anchor="middle" dominant-baseline="middle" fill="black">S4</text>
    <rect x="1212.8" y="525.0" width="18.4" height="13.0" fill="white" />
    <text x="1222.0" y="531.5" font-family="sans-serif" font-size="10" text-anchor="middle" dominant-baseline="middle" fill="black">S5</text>
    <rect x="1342.5" y="353.1" width="13.0" height="18.4" fill="white" />
    <text x="1349.0" y="362.2" font-family="sans-serif" font-size="10" text-anchor="middle" dominant-baseline="middle" fill="black" transform="rotate(-90, 1349.0, 362.2)">S6</text>
    <rect x="1412.3" y="178.5" width="18.4" height="13.0" fill="white" />
    <text x="1421.5" y="185.0" font-family="sans-serif" font-size="10" text-anchor="middle" dominant-baseline="middle" fill="black">S7</text>
    <rect x="1547.3" y="111.0" width="18.4" height="13.0" fill="white" />
    <text x="1556.5" y="117.5" font-family="sans-serif" font-size="10" text-anchor="middle" dominant-baseline="middle" fill="black">S8</text>
    <rect x="1424.8" y="525.0" width="18.4" height="13.0" fill="white" />
    <text x="1434.0" y="531.5" font-family="sans-serif" font-size="10" text-anchor="middle" dominant-baseline="middle" fill="black">S9</text>
    <rect x="1609.2" y="505.0" width="24.6" height="13.0" fill="white" />
    <text x="1621.5" y="511.5" font-family="sans-serif" font-size="10" text-anchor="middle" dominant-baseline="middle" fill="black">S10</text>
    <rect x="876.7" y="188.5" width="24.6" height="13.0" fill="white" />
    <text x="889.0" y="195.0" font-family="sans-serif" font-size="10" text-anchor="middle" dominant-baseline="middle" fill="black">S11</text>
    <rect x="1477.5" y="377.3" width="13.0" height="24.6" fill="white" />
    <text x="1484.0" y="389.6" font-family="sans-serif" font-size="10" text-anchor="middle" dominant-baseline="middle" fill="black" transform="rotate(-90, 1484.0, 389.6)">S12</text>
    <rect x="1821.8" y="495.0" width="24.6" height="13.0" fill="white" />
    <text x="1834.0" y="501.5" font-family="sans-serif" font-size="10" text-anchor="middle" dominant-baseline="middle" fill="black">S13</text>
  </g>
  <g id="instrument_taps">
    <line x1="1349" y1="579.9" x2="1349" y2="634.9" stroke="black" stroke-width="1" />
    <line x1="928" y1="501.5" x2="928" y2="441.5" stroke="black" stroke-width="1" />
  </g>
  <g id="instruments">
    <use href="#sym_instrument" x="1327" y="612.9" width="44.0" height="44.0" />
    <text x="1349.0" y="630.9" font-family="sans-serif" font-size="12" font-weight="bold" text-anchor="middle" dominant-baseline="middle">LT</text>
    <text x="1349.0" y="644.9" font-family="sans-serif" font-size="11" text-anchor="middle" dominant-baseline="middle">701</text>
    <use href="#sym_instrument_shared" x="1889.25" y="357.1" width="44.0" height="44.0" />
    <text x="1911.25" y="369.1" font-family="sans-serif" font-size="12" font-weight="bold" text-anchor="middle" dominant-baseline="middle">LIC</text>
    <text x="1911.25" y="390.1" font-family="sans-serif" font-size="11" text-anchor="middle" dominant-baseline="middle">701</text>
    <use href="#sym_instrument_interlock" x="1891.25" y="267.1" width="40.0" height="40.0" />
    <text x="1911.25" y="294.1" font-family="sans-serif" font-size="11" text-anchor="middle" dominant-baseline="middle">701</text>
    <use href="#sym_instrument" x="906" y="419.5" width="44.0" height="44.0" />
    <text x="928.0" y="437.5" font-family="sans-serif" font-size="12" font-weight="bold" text-anchor="middle" dominant-baseline="middle">PT</text>
    <text x="928.0" y="451.5" font-family="sans-serif" font-size="11" text-anchor="middle" dominant-baseline="middle">702</text>
    <use href="#sym_instrument_aux" x="906" y="332.5" width="44.0" height="44.0" />
    <text x="928.0" y="344.5" font-family="sans-serif" font-size="12" font-weight="bold" text-anchor="middle" dominant-baseline="middle">PI</text>
    <text x="928.0" y="365.5" font-family="sans-serif" font-size="11" text-anchor="middle" dominant-baseline="middle">702</text>
  </g>
  <g id="unit_labels">
    <rect x="325.0" y="494.0" width="41.0" height="15.0" fill="white" />
    <text x="325.0" y="501.5" font-family="sans-serif" font-size="12" text-anchor="start" dominant-baseline="middle">S-701</text>
    <rect x="1003.5" y="165.5" width="47.6" height="15.0" fill="white" />
    <text x="1027.25" y="177.5" font-family="sans-serif" font-size="12" text-anchor="middle" dominant-baseline="baseline">GV-701</text>
    <rect x="423.4" y="401.9" width="47.6" height="15.0" fill="white" />
    <text x="447.25" y="413.90000000000003" font-family="sans-serif" font-size="12" text-anchor="middle" dominant-baseline="baseline">TV-701</text>
    <rect x="436.6" y="453.6" width="21.2" height="15.0" fill="white" />
    <text x="447.25" y="461.1" font-family="sans-serif" font-size="12" text-anchor="middle" dominant-baseline="middle">FC</text>
    <rect x="738.2" y="449.5" width="47.6" height="15.0" fill="white" />
    <text x="762.0" y="461.5" font-family="sans-serif" font-size="12" text-anchor="middle" dominant-baseline="baseline">ST-701</text>
    <rect x="1044.5" y="429.5" width="41.0" height="15.0" fill="white" />
    <text x="1065.0" y="441.5" font-family="sans-serif" font-size="12" text-anchor="middle" dominant-baseline="baseline">E-701</text>
    <rect x="1515.2" y="153.0" width="47.6" height="15.0" fill="white" />
    <text x="1539.0" y="165.0" font-family="sans-serif" font-size="12" text-anchor="middle" dominant-baseline="baseline">EJ-701</text>
    <rect x="1304.5" y="587.4" width="41.0" height="15.0" fill="white" />
    <text x="1325.0" y="594.9" font-family="sans-serif" font-size="12" text-anchor="middle" dominant-baseline="middle">V-701</text>
    <rect x="1320.2" y="148.0" width="47.6" height="15.0" fill="white" />
    <text x="1344.0" y="160.0" font-family="sans-serif" font-size="12" text-anchor="middle" dominant-baseline="baseline">SP-701</text>
    <rect x="1485.2" y="35.5" width="47.6" height="15.0" fill="white" />
    <text x="1509.0" y="47.5" font-family="sans-serif" font-size="12" text-anchor="middle" dominant-baseline="baseline">VT-701</text>
    <rect x="1503.6" y="479.5" width="60.8" height="15.0" fill="white" />
    <text x="1534.0" y="491.5" font-family="sans-serif" font-size="12" text-anchor="middle" dominant-baseline="baseline">P-701A/B</text>
    <rect x="1718.5" y="439.5" width="41.0" height="15.0" fill="white" />
    <text x="1739.0" y="451.5" font-family="sans-serif" font-size="12" text-anchor="middle" dominant-baseline="baseline">E-702</text>
    <rect x="1887.5" y="516.4" width="47.6" height="15.0" fill="white" />
    <text x="1911.25" y="523.9000000000001" font-family="sans-serif" font-size="12" text-anchor="middle" dominant-baseline="middle">LV-701</text>
    <rect x="1900.7" y="535.4" width="21.2" height="15.0" fill="white" />
    <text x="1911.25" y="542.9000000000001" font-family="sans-serif" font-size="12" text-anchor="middle" dominant-baseline="middle">FO</text>
    <rect x="2032.0" y="516.5" width="47.6" height="15.0" fill="white" />
    <text x="2055.75" y="524.0" font-family="sans-serif" font-size="12" text-anchor="middle" dominant-baseline="middle">XV-701</text>
    <rect x="2045.2" y="535.5" width="21.2" height="15.0" fill="white" />
    <text x="2055.75" y="543.0" font-family="sans-serif" font-size="12" text-anchor="middle" dominant-baseline="middle">FC</text>
  </g>
</svg>