<?xml version="1.0" encoding="UTF-8"?>
<svg xmlns="http://www.w3.org/2000/svg" xmlns:xlink="http://www.w3.org/1999/xlink" width="1192" height="487" viewBox="-39.0 55.0 1192.0 487.0">
  <!-- Background -->
  <rect x="-39.0" y="55.0" width="1192.0" height="487.0" fill="white" />
  <defs>
    <marker id="arrow_black" viewBox="0 0 10 10" refX="10" refY="5" markerWidth="12" markerHeight="12" markerUnits="userSpaceOnUse" orient="auto-start-reverse">
      <path d="M 0 0 L 10 5 L 0 10 z" fill="black" />
    </marker>
    <symbol id="sym_fitting_rotameter" viewBox="0 0 37.5 30.0" overflow="visible"><g transform="scale(0.5)"><path d="M 51.5 9.0 L 75.0 30.0 L 51.5 51.0" fill="none" stroke="#111" stroke-width="4.0"/><ellipse cx="30.0" cy="30.0" rx="30.0" ry="30.0" fill="none" stroke="#111" stroke-width="4.0"/></g></symbol>
    <symbol id="sym_fitting_sight_glass" viewBox="0 0 50.0 25.0" overflow="visible"><g transform="scale(0.5)"><rect x="0.0" y="0.0" width="100.0" height="50.0" fill="none" stroke="#111" stroke-width="4.0"/><ellipse cx="50.0" cy="25.0" rx="25.0" ry="25.0" fill="none" stroke="#111" stroke-width="4.0"/></g></symbol>
    <symbol id="sym_fitting_strainer" viewBox="0 0 20.0 40.0" overflow="visible"><g transform="scale(0.5)"><rect x="0.0" y="0.0" width="40.0" height="80.0" fill="none" stroke="#111" stroke-width="4.0"/><path d="M 0.0 0.0 L 40.0 80.0" fill="none" stroke="#111" stroke-width="4.0"/></g></symbol>
    <symbol id="sym_instrument_panel" viewBox="0 0 44.0 44.0" overflow="visible"><circle cx="22" cy="22" r="21" fill="white" stroke="black" stroke-width="2"/><line x1="1" y1="22" x2="43" y2="22" stroke="black" stroke-width="1.5"/></symbol>
    <symbol id="sym_pump" viewBox="0 0 70.0 67.0" overflow="visible"><path d="M 12.0 54.0 L 0.0 67.0 L 60.0 67.0 L 48.0 54.0" fill="none" stroke="#111" stroke-width="2.0"/><path d="M 0.6 25.0 A 30.0 30.0 0.0 0 1 30.0 0.0 L 70.0 0.0 L 70.0 20.0 L 58.45 20.0 A 30.0 30.0 0.0 0 1 51.8587 50.8297 A 30.0 30.0 0.0 0 1 21.3414 58.7425 A 30.0 30.0 0.0 0 1 0.6 35.0" fill="none" stroke="#111" stroke-width="2.0"/><path d="M 21.4 25.0 A 10.0 10.0 0.0 1 1 21.4 35.0" fill="none" stroke="#111" stroke-width="2.0"/></symbol>
    <symbol id="sym_valve_motor_ty" viewBox="0 0 49.0 44.5" overflow="visible"><g transform="scale(0.5)"><path d="M 0.0 89.0 L 0.0 30.0 L 98.0 89.0 L 98.0 30.0 Z" fill="none" stroke="#111" stroke-width="4.0"/><rect x="19.0" y="0.0" width="60.0" height="30.0" fill="none" stroke="#111" stroke-width="4.0"/><path d="M 49.0 15.0 L 49.0 59.0 M 19.0 15.0 L 79.0 15.0" fill="none" stroke="#111" stroke-width="4.0"/><g transform="translate(0, 30.2) scale(1, -1)"><text x="49.0" y="21.4" font-family="sans-serif" font-size="18.0" text-anchor="middle" fill="white" stroke="white" stroke-width="4.5" stroke-linejoin="round">M</text></g><g transform="translate(0, 30.2) scale(1, -1)"><text x="49.0" y="21.4" font-family="sans-serif" font-size="18.0" text-anchor="middle" fill="#111">M</text></g></g></symbol>
    <symbol id="sym_valve_psv" viewBox="0 0 27.8 47.2" overflow="visible"><g transform="scale(0.5)"><path d="M 0.0 94.5 L 21.0 60.0 L 55.5 39.0 L 55.5 81.0 L 21.0 60.0 L 42.0 94.5 Z M 21.0 61.0 L 21.0 0.0 M 6.0 39.0 L 36.0 19.0 M 6.0 32.0 L 36.0 12.0 M 6.0 25.0 L 36.0 5.0" fill="none" stroke="#111" stroke-width="4.0"/></g></symbol>
    <symbol id="sym_vessel" viewBox="0 0 62.0 100.0" overflow="visible"><rect x="1.0" y="0.0" width="60.0" height="100.0" fill="none" stroke="#111" stroke-width="2.0"/><rect x="0.0" y="0.0" width="62.0" height="2.0" fill="none" stroke="#111" stroke-width="2.0"/><rect x="0.0" y="32.0" width="62.0" height="2.0" fill="none" stroke="#111" stroke-width="2.0"/><rect x="0.0" y="66.0" width="62.0" height="2.0" fill="none" stroke="#111" stroke-width="2.0"/><rect x="0.0" y="98.0" width="62.0" height="2.0" fill="none" stroke="#111" stroke-width="2.0"/></symbol>
  </defs>
  <g id="units">
    <polygon points="16.0,287 95,287 110,300 95,313 16.0,313" fill="transparent" stroke="black" stroke-width="2" />
    <text x="55.5" y="296" font-family="sans-serif" font-size="12" text-anchor="middle" dominant-baseline="middle">Raw Feed</text>
    <text x="55.5" y="308" font-family="sans-serif" font-size="10.5" text-anchor="middle" dominant-baseline="middle" fill="#333">PFD-100</text>
    <use href="#sym_fitting_strainer" x="190" y="280" width="20.0" height="40.0" />
    <use href="#sym_pump" x="280" y="270" width="70.0" height="67.0" />
    <use href="#sym_fitting_rotameter" x="430" y="265" width="37.5" height="30.0" />
    <use href="#sym_valve_motor_ty" x="540" y="265.3" width="49.0" height="44.5" transform="translate(0, 575.1) scale(1, -1)" />
    <use href="#sym_vessel" x="680" y="210" width="90" height="140" />
    <use href="#sym_valve_psv" x="709.89" y="110" width="40" height="68" />
    <polygon points="900,140.50847457627117 979.0,140.50847457627117 994.0,153.50847457627117 979.0,166.50847457627117 900,166.50847457627117" fill="transparent" stroke="black" stroke-width="2" />
    <text x="939.5" y="149.50847457627117" font-family="sans-serif" font-size="12" text-anchor="middle" dominant-baseline="middle">To Flare</text>
    <text x="939.5" y="161.50847457627117" font-family="sans-serif" font-size="10.5" text-anchor="middle" dominant-baseline="middle" fill="#333">PFD-900</text>
    <use href="#sym_fitting_sight_glass" x="850" y="267.5" width="50.0" height="25.0" />
    <polygon points="980,267 1083.0,267 1098.0,280 1083.0,293 980,293" fill="transparent" stroke="black" stroke-width="2" />
    <text x="1031.5" y="276" font-family="sans-serif" font-size="12" text-anchor="middle" dominant-baseline="middle">To Unit 200</text>
    <text x="1031.5" y="288" font-family="sans-serif" font-size="10.5" text-anchor="middle" dominant-baseline="middle" fill="#333">PFD-200</text>
  </g>
  <g id="streams">
    <path d="M 110.0,300.0 L 190.0,300.0" fill="none" stroke="black" stroke-width="2" marker-end="url(#arrow_black)" />
    <path d="M 210.0,300.0 L 280.0,300.0" fill="none" stroke="black" stroke-width="2" marker-end="url(#arrow_black)" />
    <path d="M 350.0,280.0 L 430.0,280.0" fill="none" stroke="black" stroke-width="2" marker-end="url(#arrow_black)" />
    <path d="M 467.5,280.0 L 540.0,280.0" fill="none" stroke="black" stroke-width="2" marker-end="url(#arrow_black)" />
    <path d="M 589.0,280.0 L 680.0,280.0" fill="none" stroke="black" stroke-width="2" marker-end="url(#arrow_black)" />
    <path d="M 770.0,280.0 L 850.0,280.0" fill="none" stroke="black" stroke-width="2" marker-end="url(#arrow_black)" />
    <path d="M 900.0,280.0 L 980,280.0" fill="none" stroke="black" stroke-width="2" marker-end="url(#arrow_black)" />
    <path d="M 725.0,210.0 L 725.0,178.0" fill="none" stroke="black" stroke-width="2" marker-end="url(#arrow_black)" />
    <path d="M 749.8920863309353,153.50847457627117 L 900,153.50847457627117" fill="none" stroke="black" stroke-width="2" marker-end="url(#arrow_black)" />
    <path d="M 703.0,465.0 L 564.5,465.0 L 564.5,309.8" fill="none" stroke="black" stroke-width="2" stroke-dasharray="7,4" />
    <rect x="140.8" y="293.5" width="18.4" height="13.0" fill="white" />
    <text x="150.0" y="300.0" font-family="sans-serif" font-size="10" text-anchor="middle" dominant-baseline="middle" fill="black">S1</text>
    <rect x="380.8" y="273.5" width="18.4" height="13.0" fill="white" />
    <text x="390.0" y="280.0" font-family="sans-serif" font-size="10" text-anchor="middle" dominant-baseline="middle" fill="black">S2</text>
    <rect x="800.8" y="273.5" width="18.4" height="13.0" fill="white" />
    <text x="810.0" y="280.0" font-family="sans-serif" font-size="10" text-anchor="middle" dominant-baseline="middle" fill="black">S3</text>
    <rect x="715.8" y="187.5" width="18.4" height="13.0" fill="white" />
    <text x="725.0" y="194.0" font-family="sans-serif" font-size="10" text-anchor="middle" dominant-baseline="middle" fill="black">S4</text>
  </g>
  <g id="instrument_taps">
    <line x1="725" y1="350" x2="725" y2="465" stroke="black" stroke-width="1" />
  </g>
  <g id="instruments">
    <use href="#sym_instrument_panel" x="703" y="443" width="44.0" height="44.0" />
    <text x="725.0" y="455.0" font-family="sans-serif" font-size="12" font-weight="bold" text-anchor="middle" dominant-baseline="middle">LIC</text>
    <text x="725.0" y="476.0" font-family="sans-serif" font-size="11" text-anchor="middle" dominant-baseline="middle">101</text>
  </g>
  <g id="unit_labels">
    <rect x="176.2" y="258.0" width="47.6" height="15.0" fill="white" />
    <text x="200.0" y="270" font-family="sans-serif" font-size="12" text-anchor="middle" dominant-baseline="baseline">ST-101</text>
    <rect x="294.5" y="248.0" width="41.0" height="15.0" fill="white" />
    <text x="315.0" y="260" font-family="sans-serif" font-size="12" text-anchor="middle" dominant-baseline="baseline">P-101</text>
    <rect x="424.9" y="243.0" width="47.6" height="15.0" fill="white" />
    <text x="448.75" y="255" font-family="sans-serif" font-size="12" text-anchor="middle" dominant-baseline="baseline">FI-101</text>
    <rect x="540.7" y="243.3" width="47.6" height="15.0" fill="white" />
    <text x="564.5" y="255.3" font-family="sans-serif" font-size="12" text-anchor="middle" dominant-baseline="baseline">FV-101</text>
    <rect x="704.5" y="357.5" width="41.0" height="15.0" fill="white" />
    <text x="725.0" y="365" font-family="sans-serif" font-size="12" text-anchor="middle" dominant-baseline="middle">V-101</text>
    <rect x="702.8" y="88.0" width="54.2" height="15.0" fill="white" />
    <text x="729.8920863309353" y="100" font-family="sans-serif" font-size="12" text-anchor="middle" dominant-baseline="baseline">PSV-101</text>
    <rect x="851.2" y="245.5" width="47.6" height="15.0" fill="white" />
    <text x="875.0" y="257.5" font-family="sans-serif" font-size="12" text-anchor="middle" dominant-baseline="baseline">SG-101</text>
  </g>
</svg>