<?xml version="1.0" encoding="UTF-8"?>
<svg xmlns="http://www.w3.org/2000/svg" xmlns:xlink="http://www.w3.org/1999/xlink" width="2816" height="892" viewBox="-52.0 -221.5 2815.5 891.5">
  <title>Demineralised Water</title>
  <!-- pandid:provenance -->
  <!-- Generated by pandid 0.1.3: https://github.com/Alpha9463/pandid -->
  <metadata>
    <rdf:RDF xmlns:rdf="http://www.w3.org/1999/02/22-rdf-syntax-ns#" xmlns:dc="http://purl.org/dc/elements/1.1/">
      <rdf:Description rdf:about="">
        <dc:creator>pandid 0.1.3</dc:creator>
        <dc:title>Demineralised Water</dc:title>
      </rdf:Description>
    </rdf:RDF>
  </metadata>
  <!-- /pandid:provenance -->
  <!-- Background -->
  <rect x="-52.0" y="-221.5" width="2815.5" height="891.5" fill="white" />
    <rect x="-44.0" y="-213.5" width="2799.5" height="875.5" fill="none" stroke="black" stroke-width="1"/>
    <rect x="-28.0" y="-197.5" width="2767.5" height="843.5" fill="none" stroke="black" stroke-width="2"/>
    <text x="87.3" y="-202.5" font-family="sans-serif" font-size="9.0" text-anchor="middle" font-weight="bold" fill="black">1</text>
    <text x="87.3" y="657.0" font-family="sans-serif" font-size="9.0" text-anchor="middle" font-weight="bold" fill="black">1</text>
    <line x1="202.6" y1="-213.5" x2="202.6" y2="-197.5" stroke="black" stroke-width="0.75"/>
    <line x1="202.6" y1="646.0" x2="202.6" y2="662.0" stroke="black" stroke-width="0.75"/>
    <text x="317.9" y="-202.5" font-family="sans-serif" font-size="9.0" text-anchor="middle" font-weight="bold" fill="black">2</text>
    <text x="317.9" y="657.0" font-family="sans-serif" font-size="9.0" text-anchor="middle" font-weight="bold" fill="black">2</text>
    <line x1="433.2" y1="-213.5" x2="433.2" y2="-197.5" stroke="black" stroke-width="0.75"/>
    <line x1="433.2" y1="646.0" x2="433.2" y2="662.0" stroke="black" stroke-width="0.75"/>
    <text x="548.6" y="-202.5" font-family="sans-serif" font-size="9.0" text-anchor="middle" font-weight="bold" fill="black">3</text>
    <text x="548.6" y="657.0" font-family="sans-serif" font-size="9.0" text-anchor="middle" font-weight="bold" fill="black">3</text>
    <line x1="663.9" y1="-213.5" x2="663.9" y2="-197.5" stroke="black" stroke-width="0.75"/>
    <line x1="663.9" y1="646.0" x2="663.9" y2="662.0" stroke="black" stroke-width="0.75"/>
    <text x="779.2" y="-202.5" font-family="sans-serif" font-size="9.0" text-anchor="middle" font-weight="bold" fill="black">4</text>
    <text x="779.2" y="657.0" font-family="sans-serif" font-size="9.0" text-anchor="middle" font-weight="bold" fill="black">4</text>
    <line x1="894.5" y1="-213.5" x2="894.5" y2="-197.5" stroke="black" stroke-width="0.75"/>
    <line x1="894.5" y1="646.0" x2="894.5" y2="662.0" stroke="black" stroke-width="0.75"/>
    <text x="1009.8" y="-202.5" font-family="sans-serif" font-size="9.0" text-anchor="middle" font-weight="bold" fill="black">5</text>
    <text x="1009.8" y="657.0" font-family="sans-serif" font-size="9.0" text-anchor="middle" font-weight="bold" fill="black">5</text>
    <line x1="1125.1" y1="-213.5" x2="1125.1" y2="-197.5" stroke="black" stroke-width="0.75"/>
    <line x1="1125.1" y1="646.0" x2="1125.1" y2="662.0" stroke="black" stroke-width="0.75"/>
    <text x="1240.4" y="-202.5" font-family="sans-serif" font-size="9.0" text-anchor="middle" font-weight="bold" fill="black">6</text>
    <text x="1240.4" y="657.0" font-family="sans-serif" font-size="9.0" text-anchor="middle" font-weight="bold" fill="black">6</text>
    <line x1="1355.8" y1="-213.5" x2="1355.8" y2="-197.5" stroke="black" stroke-width="0.75"/>
    <line x1="1355.8" y1="646.0" x2="1355.8" y2="662.0" stroke="black" stroke-width="0.75"/>
    <text x="1471.1" y="-202.5" font-family="sans-serif" font-size="9.0" text-anchor="middle" font-weight="bold" fill="black">7</text>
    <text x="1471.1" y="657.0" font-family="sans-serif" font-size="9.0" text-anchor="middle" font-weight="bold" fill="black">7</text>
    <line x1="1586.4" y1="-213.5" x2="1586.4" y2="-197.5" stroke="black" stroke-width="0.75"/>
    <line x1="1586.4" y1="646.0" x2="1586.4" y2="662.0" stroke="black" stroke-width="0.75"/>
    <text x="1701.7" y="-202.5" font-family="sans-serif" font-size="9.0" text-anchor="middle" font-weight="bold" fill="black">8</text>
    <text x="1701.7" y="657.0" font-family="sans-serif" font-size="9.0" text-anchor="middle" font-weight="bold" fill="black">8</text>
    <line x1="1817.0" y1="-213.5" x2="1817.0" y2="-197.5" stroke="black" stroke-width="0.75"/>
    <line x1="1817.0" y1="646.0" x2="1817.0" y2="662.0" stroke="black" stroke-width="0.75"/>
    <text x="1932.3" y="-202.5" font-family="sans-serif" font-size="9.0" text-anchor="middle" font-weight="bold" fill="black">9</text>
    <text x="1932.3" y="657.0" font-family="sans-serif" font-size="9.0" text-anchor="middle" font-weight="bold" fill="black">9</text>
    <line x1="2047.6" y1="-213.5" x2="2047.6" y2="-197.5" stroke="black" stroke-width="0.75"/>
    <line x1="2047.6" y1="646.0" x2="2047.6" y2="662.0" stroke="black" stroke-width="0.75"/>
    <text x="2162.9" y="-202.5" font-family="sans-serif" font-size="9.0" text-anchor="middle" font-weight="bold" fill="black">10</text>
    <text x="2162.9" y="657.0" font-family="sans-serif" font-size="9.0" text-anchor="middle" font-weight="bold" fill="black">10</text>
    <line x1="2278.2" y1="-213.5" x2="2278.2" y2="-197.5" stroke="black" stroke-width="0.75"/>
    <line x1="2278.2" y1="646.0" x2="2278.2" y2="662.0" stroke="black" stroke-width="0.75"/>
    <text x="2393.6" y="-202.5" font-family="sans-serif" font-size="9.0" text-anchor="middle" font-weight="bold" fill="black">11</text>
    <text x="2393.6" y="657.0" font-family="sans-serif" font-size="9.0" text-anchor="middle" font-weight="bold" fill="black">11</text>
    <line x1="2508.9" y1="-213.5" x2="2508.9" y2="-197.5" stroke="black" stroke-width="0.75"/>
    <line x1="2508.9" y1="646.0" x2="2508.9" y2="662.0" stroke="black" stroke-width="0.75"/>
    <text x="2624.2" y="-202.5" font-family="sans-serif" font-size="9.0" text-anchor="middle" font-weight="bold" fill="black">12</text>
    <text x="2624.2" y="657.0" font-family="sans-serif" font-size="9.0" text-anchor="middle" font-weight="bold" fill="black">12</text>
    <text x="-36.0" y="-110.2" font-family="sans-serif" font-size="9.0" text-anchor="middle" font-weight="bold" fill="black">A</text>
    <text x="2747.5" y="-110.2" font-family="sans-serif" font-size="9.0" text-anchor="middle" font-weight="bold" fill="black">A</text>
    <line x1="-44.0" y1="-28.8" x2="-28.0" y2="-28.8" stroke="black" stroke-width="0.75"/>
    <line x1="2739.5" y1="-28.8" x2="2755.5" y2="-28.8" stroke="black" stroke-width="0.75"/>
    <text x="-36.0" y="58.5" font-family="sans-serif" font-size="9.0" text-anchor="middle" font-weight="bold" fill="black">B</text>
    <text x="2747.5" y="58.5" font-family="sans-serif" font-size="9.0" text-anchor="middle" font-weight="bold" fill="black">B</text>
    <line x1="-44.0" y1="139.9" x2="-28.0" y2="139.9" stroke="black" stroke-width="0.75"/>
    <line x1="2739.5" y1="139.9" x2="2755.5" y2="139.9" stroke="black" stroke-width="0.75"/>
    <text x="-36.0" y="227.2" font-family="sans-serif" font-size="9.0" text-anchor="middle" font-weight="bold" fill="black">C</text>
    <text x="2747.5" y="227.2" font-family="sans-serif" font-size="9.0" text-anchor="middle" font-weight="bold" fill="black">C</text>
    <line x1="-44.0" y1="308.6" x2="-28.0" y2="308.6" stroke="black" stroke-width="0.75"/>
    <line x1="2739.5" y1="308.6" x2="2755.5" y2="308.6" stroke="black" stroke-width="0.75"/>
    <text x="-36.0" y="395.9" font-family="sans-serif" font-size="9.0" text-anchor="middle" font-weight="bold" fill="black">D</text>
    <text x="2747.5" y="395.9" font-family="sans-serif" font-size="9.0" text-anchor="middle" font-weight="bold" fill="black">D</text>
    <line x1="-44.0" y1="477.3" x2="-28.0" y2="477.3" stroke="black" stroke-width="0.75"/>
    <line x1="2739.5" y1="477.3" x2="2755.5" y2="477.3" stroke="black" stroke-width="0.75"/>
    <text x="-36.0" y="564.6" font-family="sans-serif" font-size="9.0" text-anchor="middle" font-weight="bold" fill="black">E</text>
    <text x="2747.5" y="564.6" font-family="sans-serif" font-size="9.0" text-anchor="middle" font-weight="bold" fill="black">E</text>
    <rect x="1242.2" y="-197.5" width="227.1" height="229.0" fill="white" stroke="black" stroke-width="1.5"/>
    <text x="1355.8" y="-180.5" font-family="sans-serif" font-size="12.0" text-anchor="middle" font-weight="bold" fill="black">EQUIPMENT LIST</text>
    <line x1="1242.2" y1="-174.5" x2="1469.3" y2="-174.5" stroke="black" stroke-width="1"/>
    <text x="1251.2" y="-160.5" font-family="sans-serif" font-size="11.0" text-anchor="start" font-weight="bold" fill="black">T-801</text>
    <text x="1312.5" y="-160.5" font-family="sans-serif" font-size="11.0" text-anchor="start" fill="black">Raw Water Tank</text>
    <text x="1251.2" y="-142.5" font-family="sans-serif" font-size="11.0" text-anchor="start" font-weight="bold" fill="black">P-801A/B</text>
    <text x="1312.5" y="-142.5" font-family="sans-serif" font-size="11.0" text-anchor="start" fill="black">Raw Water Transfer Pump</text>
    <text x="1251.2" y="-124.5" font-family="sans-serif" font-size="11.0" text-anchor="start" font-weight="bold" fill="black">F-801</text>
    <text x="1312.5" y="-124.5" font-family="sans-serif" font-size="11.0" text-anchor="start" fill="black">Multimedia Filter</text>
    <text x="1251.2" y="-106.5" font-family="sans-serif" font-size="11.0" text-anchor="start" font-weight="bold" fill="black">F-802</text>
    <text x="1312.5" y="-106.5" font-family="sans-serif" font-size="11.0" text-anchor="start" fill="black">Activated Carbon Filter</text>
    <text x="1251.2" y="-88.5" font-family="sans-serif" font-size="11.0" text-anchor="start" font-weight="bold" fill="black">IX-801</text>
    <text x="1312.5" y="-88.5" font-family="sans-serif" font-size="11.0" text-anchor="start" fill="black">Cation Exchanger</text>
    <text x="1251.2" y="-70.5" font-family="sans-serif" font-size="11.0" text-anchor="start" font-weight="bold" fill="black">D-801</text>
    <text x="1312.5" y="-70.5" font-family="sans-serif" font-size="11.0" text-anchor="start" fill="black">Degasser Tower</text>
    <text x="1251.2" y="-52.5" font-family="sans-serif" font-size="11.0" text-anchor="start" font-weight="bold" fill="black">B-801</text>
    <text x="1312.5" y="-52.5" font-family="sans-serif" font-size="11.0" text-anchor="start" fill="black">Degasser Air Blower</text>
    <text x="1251.2" y="-34.5" font-family="sans-serif" font-size="11.0" text-anchor="start" font-weight="bold" fill="black">P-802A/B</text>
    <text x="1312.5" y="-34.5" font-family="sans-serif" font-size="11.0" text-anchor="start" fill="black">Degassed Water Pump</text>
    <text x="1251.2" y="-16.5" font-family="sans-serif" font-size="11.0" text-anchor="start" font-weight="bold" fill="black">IX-802</text>
    <text x="1312.5" y="-16.5" font-family="sans-serif" font-size="11.0" text-anchor="start" fill="black">Anion Exchanger</text>
    <text x="1251.2" y="1.5" font-family="sans-serif" font-size="11.0" text-anchor="start" font-weight="bold" fill="black">IX-803</text>
    <text x="1312.5" y="1.5" font-family="sans-serif" font-size="11.0" text-anchor="start" fill="black">Mixed Bed Polisher</text>
    <text x="1251.2" y="19.5" font-family="sans-serif" font-size="11.0" text-anchor="start" font-weight="bold" fill="black">T-802</text>
    <text x="1312.5" y="19.5" font-family="sans-serif" font-size="11.0" text-anchor="start" fill="black">Demineralised Water Tank</text>
    <g id="stream_table">
      <rect x="-28.0" y="606.0" width="122.0" height="20.0" fill="#eee" stroke="black" stroke-width="0.75"/>
      <text x="-23.0" y="619.5" font-family="sans-serif" font-size="10.5" font-weight="bold" text-anchor="start">Stream Number</text>
      <rect x="94.0" y="606.0" width="52.0" height="20.0" fill="#eee" stroke="black" stroke-width="0.75"/>
      <text x="120.0" y="619.5" font-family="sans-serif" font-size="10.5" font-weight="bold" text-anchor="middle">S1</text>
      <rect x="146.0" y="606.0" width="52.0" height="20.0" fill="#eee" stroke="black" stroke-width="0.75"/>
      <text x="172.0" y="619.5" font-family="sans-serif" font-size="10.5" font-weight="bold" text-anchor="middle">S7</text>
      <rect x="198.0" y="606.0" width="52.0" height="20.0" fill="#eee" stroke="black" stroke-width="0.75"/>
      <text x="224.0" y="619.5" font-family="sans-serif" font-size="10.5" font-weight="bold" text-anchor="middle">S14</text>
      <rect x="-28.0" y="626.0" width="122.0" height="20.0" fill="#f9f9f9" stroke="black" stroke-width="0.75"/>
      <text x="-23.0" y="639.5" font-family="sans-serif" font-size="10.5" font-weight="bold" text-anchor="start">Flow (kg/h)</text>
      <rect x="94.0" y="626.0" width="52.0" height="20.0" fill="white" stroke="black" stroke-width="0.75"/>
      <text x="120.0" y="639.5" font-family="sans-serif" font-size="10.5" text-anchor="middle">10000</text>
      <rect x="146.0" y="626.0" width="52.0" height="20.0" fill="white" stroke="black" stroke-width="0.75"/>
      <text x="172.0" y="639.5" font-family="sans-serif" font-size="10.5" text-anchor="middle">200</text>
      <rect x="198.0" y="626.0" width="52.0" height="20.0" fill="white" stroke="black" stroke-width="0.75"/>
      <text x="224.0" y="639.5" font-family="sans-serif" font-size="10.5" text-anchor="middle">9700</text>
    </g>
    <rect x="2087.5" y="566.0" width="652.0" height="80.0" fill="white" stroke="black" stroke-width="2"/>
    <line x1="2387.5" y1="566.0" x2="2387.5" y2="646.0" stroke="black" stroke-width="1.5"/>
    <line x1="2487.5" y1="566.0" x2="2487.5" y2="646.0" stroke="black" stroke-width="1.5"/>
    <line x1="2087.5" y1="632.0" x2="2387.5" y2="632.0" stroke="black" stroke-width="1"/>
    <line x1="2109.5" y1="566.0" x2="2109.5" y2="646.0" stroke="black" stroke-width="0.5"/>
    <line x1="2159.5" y1="566.0" x2="2159.5" y2="646.0" stroke="black" stroke-width="0.5"/>
    <line x1="2291.5" y1="566.0" x2="2291.5" y2="646.0" stroke="black" stroke-width="0.5"/>
    <line x1="2323.5" y1="566.0" x2="2323.5" y2="646.0" stroke="black" stroke-width="0.5"/>
    <line x1="2355.5" y1="566.0" x2="2355.5" y2="646.0" stroke="black" stroke-width="0.5"/>
    <text x="2090.5" y="642.0" font-family="sans-serif" font-size="7.5" text-anchor="start" font-weight="bold" fill="black">REV</text>
    <text x="2112.5" y="642.0" font-family="sans-serif" font-size="7.5" text-anchor="start" font-weight="bold" fill="black">DATE</text>
    <text x="2162.5" y="642.0" font-family="sans-serif" font-size="7.5" text-anchor="start" font-weight="bold" fill="black">DESCRIPTION</text>
    <text x="2294.5" y="642.0" font-family="sans-serif" font-size="7.5" text-anchor="start" font-weight="bold" fill="black">BY</text>
    <text x="2326.5" y="642.0" font-family="sans-serif" font-size="7.5" text-anchor="start" font-weight="bold" fill="black">CHK&#x27;D</text>
    <text x="2358.5" y="642.0" font-family="sans-serif" font-size="7.5" text-anchor="start" font-weight="bold" fill="black">APP&#x27;D</text>
    <text x="2090.5" y="628.0" font-family="sans-serif" font-size="7.5" text-anchor="start" fill="black">B</text>
    <text x="2112.5" y="628.0" font-family="sans-serif" font-size="7.5" text-anchor="start" fill="black">03/08/26</text>
    <text x="2162.5" y="628.0" font-family="sans-serif" font-size="7.5" text-anchor="start" fill="black">Issued For Review</text>
    <text x="2294.5" y="628.0" font-family="sans-serif" font-size="7.5" text-anchor="start" fill="black">AA</text>
    <text x="2326.5" y="628.0" font-family="sans-serif" font-size="7.5" text-anchor="start" fill="black">JS</text>
    <text x="2358.5" y="628.0" font-family="sans-serif" font-size="7.5" text-anchor="start" fill="black">RL</text>
    <text x="2090.5" y="614.0" font-family="sans-serif" font-size="7.5" text-anchor="start" fill="black">A</text>
    <text x="2112.5" y="614.0" font-family="sans-serif" font-size="7.5" text-anchor="start" fill="black">24/07/26</text>
    <text x="2162.5" y="614.0" font-family="sans-serif" font-size="7.5" text-anchor="start" fill="black">Issued for internal review</text>
    <text x="2294.5" y="614.0" font-family="sans-serif" font-size="7.5" text-anchor="start" fill="black">AA</text>
    <text x="2326.5" y="614.0" font-family="sans-serif" font-size="7.5" text-anchor="start" fill="black"></text>
    <text x="2358.5" y="614.0" font-family="sans-serif" font-size="7.5" text-anchor="start" fill="black"></text>
    <text x="2437.5" y="606.0" font-family="sans-serif" font-size="8.0" text-anchor="middle" font-weight="bold" fill="black">PANDID</text>
    <line x1="2487.5" y1="598.0" x2="2739.5" y2="598.0" stroke="black" stroke-width="0.75"/>
    <line x1="2487.5" y1="620.4" x2="2739.5" y2="620.4" stroke="black" stroke-width="0.75"/>
    <text x="2493.5" y="581.0" font-family="sans-serif" font-size="12.5" text-anchor="start" font-weight="bold" fill="black">Demineralised Water</text>
    <text x="2493.5" y="592.0" font-family="sans-serif" font-size="10.5" text-anchor="start" fill="black">U800 Process Flow Diagram</text>
    <text x="2734.5" y="577.0" font-family="sans-serif" font-size="7.5" text-anchor="end" fill="#666">SHEET 1 of 1</text>
    <text x="2493.5" y="606.0" font-family="sans-serif" font-size="6.5" text-anchor="start" fill="#666">STATUS</text>
    <text x="2493.5" y="615.4" font-family="sans-serif" font-size="11.0" text-anchor="start" font-weight="bold" fill="black">ISSUED FOR REVIEW</text>
    <text x="2492.5" y="628.4" font-family="sans-serif" font-size="6.5" text-anchor="start" fill="#666">DRAWING No</text>
    <text x="2492.5" y="641.0" font-family="sans-serif" font-size="11.0" text-anchor="start" font-weight="bold" fill="black">PFD-801</text>
    <line x1="2583.3" y1="620.4" x2="2583.3" y2="646.0" stroke="black" stroke-width="0.5"/>
    <text x="2588.3" y="628.4" font-family="sans-serif" font-size="6.5" text-anchor="start" fill="#666">SCALE</text>
    <line x1="2636.2" y1="620.4" x2="2636.2" y2="646.0" stroke="black" stroke-width="0.5"/>
    <text x="2641.2" y="628.4" font-family="sans-serif" font-size="6.5" text-anchor="start" fill="#666">DATE</text>
    <text x="2641.2" y="641.0" font-family="sans-serif" font-size="11.0" text-anchor="start" fill="black">03/08/26</text>
    <line x1="2709.3" y1="620.4" x2="2709.3" y2="646.0" stroke="black" stroke-width="0.5"/>
    <text x="2714.3" y="628.4" font-family="sans-serif" font-size="6.5" text-anchor="start" fill="#666">REV</text>
    <text x="2714.3" y="641.0" font-family="sans-serif" font-size="11.0" text-anchor="start" font-weight="bold" fill="black">B</text>
  <defs>
    <marker id="arrow_black" viewBox="0 0 10 10" refX="10" refY="5" markerWidth="12" markerHeight="12" markerUnits="userSpaceOnUse" orient="auto-start-reverse">
      <path d="M 0 0 L 10 5 L 0 10 z" fill="black" />
    </marker>
    <symbol id="sym_blower" viewBox="0 0 100.0 100.0" overflow="visible"><ellipse cx="50.0" cy="50.0" rx="50.0" ry="50.0" fill="white" stroke="#111" stroke-width="2.0"/><path d="M 0.0 0.0 L 14.5 14.5 M 100.0 0.0 L 85.5 14.5" fill="none" stroke="#111" stroke-width="2.0"/></symbol>
    <symbol id="sym_column_packed" viewBox="0 0 62.0 200.0" overflow="visible"><path d="M 62 7.216495 L 62 192.783505 A 31 7.216495 0 0 1 31 200 A 31 7.216495 0 0 1 0 192.783505 L 0 7.216495 A 31 7.216495 0 0 1 31 0 A 31 7.216495 0 0 1 62 7.216495 Z M 0 7.216495 L 62 7.216495 M 0 192.783505 L 62 192.783505 M 0 89.690722 L 62 89.690722 M 0 110.309278 L 62 110.309278 M 0 38.14433 L 62 38.14433 M 0 161.85567 L 62 161.85567 M 62 38.14433 L 0 89.690722 M 62 89.690722 L 0 38.14433 M 62 110.309278 L 0 161.85567 M 62 161.85567 L 0 110.309278" fill="white" stroke="#111" stroke-width="2.00041"/></symbol>
    <symbol id="sym_filter" viewBox="0 0 50.0 100.0" overflow="visible"><rect x="0.0" y="0.0" width="50.0" height="100.0" fill="white" stroke="#111" stroke-width="2.0"/><path d="M 0.0 20.0 L 50.0 20.0 M 0.0 80.0 L 50.0 80.0 M 0.0 40.0 L 15.0 40.0 L 15.0 60.0 L 35.0 60.0 L 35.0 40.0 L 50.0 40.0" fill="none" stroke="#111" stroke-width="2.0" stroke-dasharray="4 4"/></symbol>
    <symbol id="sym_filter_fixed_bed" viewBox="0 0 50.0 100.0" overflow="visible"><rect x="0.0" y="0.0" width="50.0" height="100.0" fill="white" stroke="#111" stroke-width="2.0"/><path d="M 0.0 20.0 L 50.0 80.0 M 50.0 20.0 L 0.0 80.0" fill="none" stroke="#111" stroke-width="2.0"/><path d="M 0.0 20.0 L 50.0 20.0 M 0.0 80.0 L 50.0 80.0" fill="none" stroke="#111" stroke-width="2.0" stroke-dasharray="4 4"/></symbol>
    <symbol id="sym_filter_ion_exchange" viewBox="0 0 50.0 100.0" overflow="visible"><rect x="0.0" y="0.0" width="50.0" height="100.0" fill="white" stroke="#111" stroke-width="2.0"/><path d="M 0.0 20.0 L 50.0 20.0 M 0.0 80.0 L 50.0 80.0" fill="none" stroke="#111" stroke-width="2.0" stroke-dasharray="4 4"/></symbol>
    <symbol id="sym_fitting_strainer_duplex" viewBox="0 0 25.0 20.0" overflow="visible"><g transform="scale(0.5)"><ellipse cx="25.0" cy="30.0" rx="10.0" ry="10.0" fill="white" stroke="#111" stroke-width="2"/><ellipse cx="25.0" cy="10.0" rx="10.0" ry="10.0" fill="white" stroke="#111" stroke-width="2"/><path d="M 0.0 20.0 L 50.0 20.0 M 50.0 10.0 L 50.0 30.0 M 0.0 10.0 L 0.0 30.0" fill="none" stroke="#111" stroke-width="2"/></g></symbol>
    <symbol id="sym_pump" viewBox="0 0 70.0 67.0" overflow="visible"><path d="M 12.0 54.0 L 0.0 67.0 L 60.0 67.0 L 48.0 54.0" fill="white" stroke="#111" stroke-width="2.0"/><path d="M 0.6 25.0 A 30.0 30.0 0.0 0 1 30.0 0.0 L 70.0 0.0 L 70.0 20.0 L 58.45 20.0 A 30.0 30.0 0.0 0 1 51.8587 50.8297 A 30.0 30.0 0.0 0 1 21.3414 58.7425 A 30.0 30.0 0.0 0 1 0.6 35.0" fill="white" stroke="#111" stroke-width="2.0"/><path d="M 21.4 25.0 A 10.0 10.0 0.0 1 1 21.4 35.0" fill="none" stroke="#111" stroke-width="2.0"/></symbol>
    <symbol id="sym_tank_conical" viewBox="0 0 100.0 90.0" overflow="visible"><path d="M 0.0 20.0 L 0.0 90.0 L 100.0 90.0 L 100.0 20.0 L 50.0 0.0 Z M 0.0 20.0 L 100.0 20.0" fill="white" stroke="#111" stroke-width="2.0"/></symbol>
    <symbol id="sym_tank_dished_roof_conical_bottom" viewBox="0 0 100.0 125.5" overflow="visible"><path d="M 0.0 95.46 L 0.0 25.46 A 75.0 75.0 0.0 0 1 100.0 25.46 L 100.0 95.46 L 50.0 125.46 Z M 0.0 25.46 L 100.0 25.46 M 0.0 95.46 L 100.0 95.46" fill="white" stroke="#111" stroke-width="2.0"/></symbol>
    <symbol id="sym_valve_manual" viewBox="0 0 24.5 16.2" overflow="visible"><g transform="scale(0.25)"><path d="M 0.0 65.0 L 0.0 5.0 L 98.0 65.0 L 98.0 5.0 Z" fill="white" stroke="#111" stroke-width="4"/><path d="M 49.0 35.0 L 49.0 0.0 L 79.0 0.0" fill="none" stroke="#111" stroke-width="4"/></g></symbol>
    <symbol id="sym_vent" viewBox="0 0 20.0 35.0" overflow="visible"><g transform="scale(0.25)"><path d="M 40.0 40.0 L 40.0 140.0 M 0.0 40.0 L 40.0 0.0 L 80.0 40.0" fill="none" stroke="#111" stroke-width="4"/></g></symbol>
  </defs>
  <g id="units">
    <polygon points="-2.0,179.25 85.0,179.25 100.0,192.25 85.0,205.25 -2.0,205.25" fill="transparent" stroke="black" stroke-width="2" />
    <text x="41.5" y="188.25" font-family="sans-serif" font-size="12" text-anchor="middle" dominant-baseline="middle">Raw Water</text>
    <text x="41.5" y="200.25" font-family="sans-serif" font-size="10.5" text-anchor="middle" dominant-baseline="middle" fill="#333">PFD-100</text>
    <use href="#sym_tank_dished_roof_conical_bottom" x="272" y="207.25" width="100.0" height="125.5" />
    <use href="#sym_fitting_strainer_duplex" x="492" y="337.75" width="25.0" height="20.0" />
    <use href="#sym_pump" x="637" y="317.75" width="70.0" height="67.0" />
    <use href="#sym_filter" x="827" y="277.75" width="50.0" height="100.0" />
    <use href="#sym_filter_fixed_bed" x="997" y="277.75" width="50.0" height="100.0" />
    <use href="#sym_filter_ion_exchange" x="1167" y="277.75" width="50.0" height="100.0" />
    <use href="#sym_column_packed" x="1337" y="222.75" width="62.0" height="200.0" />
    <polygon points="1253.0,480.0 1372.0,480.0 1387.0,490.0 1372.0,500.0 1253.0,500.0" fill="transparent" stroke="black" stroke-width="2" />
    <text x="1312.5" y="490.0" font-family="sans-serif" font-size="12" text-anchor="middle" dominant-baseline="middle">Stripping Air</text>
    <use href="#sym_blower" x="1591" y="440" width="100.0" height="100.0" />
    <use href="#sym_vent" x="1591" y="57.5" width="20.0" height="35.0" />
    <use href="#sym_pump" x="1591" y="236.5" width="70.0" height="67.0" />
    <use href="#sym_filter_ion_exchange" x="1811" y="196.5" width="50.0" height="100.0" />
    <use href="#sym_filter_ion_exchange" x="1981" y="196.5" width="50.0" height="100.0" />
    <use href="#sym_tank_conical" x="2151" y="166.5" width="100.0" height="90.0" />
    <use href="#sym_valve_manual" x="2371" y="262.7" width="24.5" height="16.2" />
    <polygon points="2515.5,258.5 2698.5,258.5 2713.5,271.5 2698.5,284.5 2515.5,284.5" fill="transparent" stroke="black" stroke-width="2" />
    <text x="2607.0" y="267.5" font-family="sans-serif" font-size="12" text-anchor="middle" dominant-baseline="middle">To Demin Water Header</text>
    <text x="2607.0" y="279.5" font-family="sans-serif" font-size="10.5" text-anchor="middle" dominant-baseline="middle" fill="#333">PFD-200</text>
  </g>
  <g id="streams">
    <path d="M 100.0,192.25 L 322.0,192.25 L 322.0,213.65" fill="none" stroke="black" stroke-width="2" marker-end="url(#arrow_black)" />
    <path d="M 322.0,332.75 L 322.0,347.75 L 492.0,347.75" fill="none" stroke="black" stroke-width="2" marker-end="url(#arrow_black)" />
    <path d="M 517.0,347.75 L 637.0,347.75" fill="none" stroke="black" stroke-width="2" marker-end="url(#arrow_black)" />
    <path d="M 707.0,327.75 L 827.0,327.75" fill="none" stroke="black" stroke-width="2" marker-end="url(#arrow_black)" />
    <path d="M 877.0,327.75 L 997.0,327.75" fill="none" stroke="black" stroke-width="2" marker-end="url(#arrow_black)" />
    <path d="M 1047.0,327.75 L 1167.0,327.75" fill="none" stroke="black" stroke-width="2" marker-end="url(#arrow_black)" />
    <path d="M 1217.0,327.75 L 1337.0,327.75" fill="none" stroke="black" stroke-width="2" marker-end="url(#arrow_black)" />
    <path d="M 1387.0,490.0 L 1591.0,490.0" fill="none" stroke="black" stroke-width="2" marker-end="url(#arrow_black)" />
    <path d="M 1641.0,440.0 L 1641.0,397.75 L 1399.0,397.75" fill="none" stroke="black" stroke-width="2" marker-end="url(#arrow_black)" />
    <path d="M 1368.0,222.75 L 1368.0,117.5 L 1601.0,117.5 L 1601.0,92.5" fill="none" stroke="black" stroke-width="2" marker-end="url(#arrow_black)" />
    <path d="M 1368.0,422.75 L 1368.0,447.75 L 1566.0,447.75 L 1566.0,402.75 A 5 5 0 0 1 1566.0,392.75 L 1566.0,266.5 L 1591.0,266.5" fill="none" stroke="black" stroke-width="2" marker-end="url(#arrow_black)" />
    <path d="M 1661.0,246.5 L 1811.0,246.5" fill="none" stroke="black" stroke-width="2" marker-end="url(#arrow_black)" />
    <path d="M 1861.0,246.5 L 1981.0,246.5" fill="none" stroke="black" stroke-width="2" marker-end="url(#arrow_black)" />
    <path d="M 2031.0,246.5 L 2151.0,246.5" fill="none" stroke="black" stroke-width="2" marker-end="url(#arrow_black)" />
    <path d="M 2201.0,256.5 L 2201.0,271.5 L 2371.0,271.5" fill="none" stroke="black" stroke-width="2" marker-end="url(#arrow_black)" />
    <path d="M 2395.5,271.5 L 2515.5,271.5" fill="none" stroke="black" stroke-width="2" marker-end="url(#arrow_black)" />
    <rect x="201.8" y="185.8" width="18.4" height="13.0" fill="white" />
    <text x="211.0" y="192.2" font-family="sans-serif" font-size="10" text-anchor="middle" dominant-baseline="middle" fill="black">S1</text>
    <rect x="397.8" y="341.2" width="18.4" height="13.0" fill="white" />
    <text x="407.0" y="347.8" font-family="sans-serif" font-size="10" text-anchor="middle" dominant-baseline="middle" fill="black">S2</text>
    <rect x="757.8" y="321.2" width="18.4" height="13.0" fill="white" />
    <text x="767.0" y="327.8" font-family="sans-serif" font-size="10" text-anchor="middle" dominant-baseline="middle" fill="black">S3</text>
    <rect x="927.8" y="321.2" width="18.4" height="13.0" fill="white" />
    <text x="937.0" y="327.8" font-family="sans-serif" font-size="10" text-anchor="middle" dominant-baseline="middle" fill="black">S4</text>
    <rect x="1097.8" y="321.2" width="18.4" height="13.0" fill="white" />
    <text x="1107.0" y="327.8" font-family="sans-serif" font-size="10" text-anchor="middle" dominant-baseline="middle" fill="black">S5</text>
    <rect x="1267.8" y="321.2" width="18.4" height="13.0" fill="white" />
    <text x="1277.0" y="327.8" font-family="sans-serif" font-size="10" text-anchor="middle" dominant-baseline="middle" fill="black">S6</text>
    <rect x="1479.8" y="483.5" width="18.4" height="13.0" fill="white" />
    <text x="1489.0" y="490.0" font-family="sans-serif" font-size="10" text-anchor="middle" dominant-baseline="middle" fill="black">S7</text>
    <rect x="1510.8" y="391.2" width="18.4" height="13.0" fill="white" />
    <text x="1520.0" y="397.8" font-family="sans-serif" font-size="10" text-anchor="middle" dominant-baseline="middle" fill="black">S8</text>
    <rect x="1475.3" y="111.0" width="18.4" height="13.0" fill="white" />
    <text x="1484.5" y="117.5" font-family="sans-serif" font-size="10" text-anchor="middle" dominant-baseline="middle" fill="black">S9</text>
    <rect x="1454.7" y="441.2" width="24.6" height="13.0" fill="white" />
    <text x="1467.0" y="447.8" font-family="sans-serif" font-size="10" text-anchor="middle" dominant-baseline="middle" fill="black">S10</text>
    <rect x="1723.7" y="240.0" width="24.6" height="13.0" fill="white" />
    <text x="1736.0" y="246.5" font-family="sans-serif" font-size="10" text-anchor="middle" dominant-baseline="middle" fill="black">S11</text>
    <rect x="1908.7" y="240.0" width="24.6" height="13.0" fill="white" />
    <text x="1921.0" y="246.5" font-family="sans-serif" font-size="10" text-anchor="middle" dominant-baseline="middle" fill="black">S12</text>
    <rect x="2078.7" y="240.0" width="24.6" height="13.0" fill="white" />
    <text x="2091.0" y="246.5" font-family="sans-serif" font-size="10" text-anchor="middle" dominant-baseline="middle" fill="black">S13</text>
    <rect x="2273.7" y="265.0" width="24.6" height="13.0" fill="white" />
    <text x="2286.0" y="271.5" font-family="sans-serif" font-size="10" text-anchor="middle" dominant-baseline="middle" fill="black">S14</text>
  </g>
  <g id="unit_labels">
    <rect x="382.0" y="262.5" width="41.0" height="15.0" fill="white" />
    <text x="382.0" y="270.0" font-family="sans-serif" font-size="12" text-anchor="start" dominant-baseline="middle">T-801</text>
    <rect x="480.7" y="315.8" width="47.6" height="15.0" fill="white" />
    <text x="504.5" y="327.75" font-family="sans-serif" font-size="12" text-anchor="middle" dominant-baseline="baseline">ST-801</text>
    <rect x="641.6" y="295.8" width="60.8" height="15.0" fill="white" />
    <text x="672.0" y="307.75" font-family="sans-serif" font-size="12" text-anchor="middle" dominant-baseline="baseline">P-801A/B</text>
    <rect x="831.5" y="255.8" width="41.0" height="15.0" fill="white" />
    <text x="852.0" y="267.75" font-family="sans-serif" font-size="12" text-anchor="middle" dominant-baseline="baseline">F-801</text>
    <rect x="1001.5" y="255.8" width="41.0" height="15.0" fill="white" />
    <text x="1022.0" y="267.75" font-family="sans-serif" font-size="12" text-anchor="middle" dominant-baseline="baseline">F-802</text>
    <rect x="1168.2" y="255.8" width="47.6" height="15.0" fill="white" />
    <text x="1192.0" y="267.75" font-family="sans-serif" font-size="12" text-anchor="middle" dominant-baseline="baseline">IX-801</text>
    <rect x="1323.5" y="200.8" width="41.0" height="15.0" fill="white" />
    <text x="1344.0" y="212.75" font-family="sans-serif" font-size="12" text-anchor="middle" dominant-baseline="baseline">D-801</text>
    <rect x="1620.5" y="547.5" width="41.0" height="15.0" fill="white" />
    <text x="1641.0" y="555.0" font-family="sans-serif" font-size="12" text-anchor="middle" dominant-baseline="middle">B-801</text>
    <rect x="1577.2" y="35.5" width="47.6" height="15.0" fill="white" />
    <text x="1601.0" y="47.5" font-family="sans-serif" font-size="12" text-anchor="middle" dominant-baseline="baseline">VT-801</text>
    <rect x="1595.6" y="214.5" width="60.8" height="15.0" fill="white" />
    <text x="1626.0" y="226.5" font-family="sans-serif" font-size="12" text-anchor="middle" dominant-baseline="baseline">P-802A/B</text>
    <rect x="1812.2" y="174.5" width="47.6" height="15.0" fill="white" />
    <text x="1836.0" y="186.5" font-family="sans-serif" font-size="12" text-anchor="middle" dominant-baseline="baseline">IX-802</text>
    <rect x="1982.2" y="174.5" width="47.6" height="15.0" fill="white" />
    <text x="2006.0" y="186.5" font-family="sans-serif" font-size="12" text-anchor="middle" dominant-baseline="baseline">IX-803</text>
    <rect x="2180.5" y="144.5" width="41.0" height="15.0" fill="white" />
    <text x="2201.0" y="156.5" font-family="sans-serif" font-size="12" text-anchor="middle" dominant-baseline="baseline">T-802</text>
    <rect x="2359.4" y="240.7" width="47.6" height="15.0" fill="white" />
    <text x="2383.25" y="252.7" font-family="sans-serif" font-size="12" text-anchor="middle" dominant-baseline="baseline">HV-801</text>
  </g>
</svg>